<?xml version="1.0" encoding="utf-8"?>
<!-- Generator: Adobe Illustrator 25.4.1, SVG Export Plug-In . SVG Version: 6.00 Build 0)  -->
<svg version="1.1" id="图层_1" xmlns="http://www.w3.org/2000/svg" xmlns:xlink="http://www.w3.org/1999/xlink" x="0px" y="0px"
	 viewBox="0 0 200 100" style="enable-background:new 0 0 200 100;" xml:space="preserve">
<style type="text/css">
	.st0{fill:#515151;}
</style>
<path class="st0" d="M73.5,16.6H9.1c-1.5,0-2.8,1.3-2.8,2.8v64.4c0,1.5,1.3,2.8,2.8,2.8h64.4c1.5,0,2.8-1.3,2.8-2.8V19.4
	C76.3,17.9,75,16.6,73.5,16.6z M41.3,52.1L24.5,66.2c-0.5,0.4-1.1,0.1-1.1-0.5v-5.5c0-0.2,0.1-0.4,0.3-0.5l9.6-8.1l-9.6-8.1
	c-0.2-0.1-0.3-0.3-0.3-0.5v-5.5c0-0.6,0.7-0.9,1.1-0.5l16.8,14.1C41.7,51.3,41.7,51.9,41.3,52.1L41.3,52.1z M59.1,65.7
	c0,0.4-0.3,0.7-0.7,0.7H42.3c-0.4,0-0.7-0.3-0.7-0.7v-4.2c0-0.4,0.3-0.7,0.7-0.7h16.2c0.4,0,0.7,0.3,0.7,0.7V65.7z"/>
<g>
	<path class="st0" d="M85.7,61.5H77v-0.8h2.6V43H77v-0.8h10.5c1.1,0,2.1,0.2,3.2,0.6c1.1,0.4,2.1,1.1,3,1.9c0.9,0.8,1.6,1.9,2.1,3.1
		c0.5,1.3,0.8,2.7,0.8,4.4c0,1.3-0.2,2.4-0.5,3.3c-0.4,0.9-0.8,1.8-1.4,2.4c-0.6,0.7-1.3,1.2-2,1.7c-0.8,0.4-1.5,0.8-2.3,1
		c-0.8,0.3-1.6,0.4-2.4,0.5C87.1,61.4,86.4,61.5,85.7,61.5z M85.7,60.6c0.7,0,1.5-0.2,2.2-0.5c0.7-0.4,1.4-0.9,2-1.6
		c0.6-0.7,1.1-1.6,1.4-2.6c0.4-1,0.5-2.2,0.5-3.6c0-1.5-0.2-2.8-0.6-3.9c-0.4-1.1-0.9-2.1-1.5-2.9c-0.6-0.8-1.2-1.4-1.9-1.8
		c-0.7-0.4-1.4-0.6-2-0.6h-1.5v17.6H85.7z"/>
	<path class="st0" d="M111.4,55h-8c0,0.7,0.1,1.3,0.2,1.9c0.1,0.6,0.3,1.2,0.6,1.7s0.7,0.9,1.2,1.2c0.5,0.3,1.1,0.5,1.9,0.5
		c1.2,0,2.1-0.2,2.8-0.7c0.6-0.4,1.2-1,1.5-1.8l1.8,0.9c-0.2,0.3-0.4,0.6-0.7,1c-0.3,0.3-0.7,0.7-1.2,0.9s-1.1,0.5-1.8,0.7
		c-0.7,0.2-1.5,0.3-2.4,0.3c-1.6,0-2.9-0.2-3.9-0.6c-1-0.4-1.9-0.9-2.5-1.5s-1.1-1.4-1.4-2.2c-0.3-0.8-0.4-1.6-0.4-2.4
		c0-1,0.2-1.9,0.5-2.7c0.4-0.8,0.9-1.5,1.5-2.1c0.6-0.6,1.4-1.1,2.2-1.4c0.9-0.3,1.8-0.5,2.7-0.5c1.4,0,2.5,0.2,3.4,0.6
		s1.6,0.9,2.2,1.5c0.5,0.6,0.9,1.3,1.2,2.1c0.2,0.8,0.4,1.5,0.4,2.3c0,0.2-0.2,0.3-0.6,0.3C112.3,55,111.9,55,111.4,55L111.4,55z
		 M106.3,49.4c-0.6,0-1.1,0.1-1.5,0.4c-0.4,0.3-0.7,0.6-0.9,1.1c-0.2,0.5-0.4,1-0.4,1.6c-0.1,0.6-0.1,1.2-0.2,1.8h5.9
		c0-0.6-0.1-1.2-0.2-1.7s-0.2-1.1-0.5-1.6c-0.2-0.5-0.5-0.8-0.9-1.1C107.4,49.5,106.9,49.4,106.3,49.4z"/>
	<path class="st0" d="M114.4,48.8h9.1v0.8h-2.2l3.7,10.2l3.7-10.2h-3.4v-0.8h6.8v0.8h-2.3l-4.2,11.6l0,0c0,0.1-0.1,0.2-0.5,0.3
		c-0.3,0-0.7,0.1-1.2,0.1c-0.5,0-1,0-1.6-0.1c-0.6,0-1.1-0.1-1.6-0.1l-4.3-11.8h-2V48.8z"/>
	<path class="st0" d="M137.9,61.3c0,0.2-0.3,0.4-0.6,0.6c-0.4,0.1-0.8,0.3-1.2,0.3s-0.8,0.1-1.2,0c-0.4,0-0.5-0.2-0.5-0.3l0-6.1
		V42.8l-2.7,0.4l-0.2-0.8c0.7-0.1,1.3-0.2,1.9-0.3c0.5-0.1,1-0.1,1.3-0.2s0.7-0.1,1-0.2c0.3,0,0.6-0.1,0.9-0.1
		c0.7-0.1,1.1-0.1,1.4,0c0.2,0,0.4,0.1,0.4,0.2V50c0.4-0.4,0.9-0.7,1.4-1c0.5-0.3,1.2-0.4,1.9-0.4c0.7,0,1.5,0.1,2.3,0.3
		c0.8,0.2,1.5,0.6,2.2,1.1c0.7,0.5,1.2,1.1,1.7,1.9c0.4,0.8,0.7,1.7,0.7,2.9c0,1.3-0.2,2.4-0.5,3.3c-0.4,0.9-0.8,1.6-1.5,2.2
		c-0.6,0.6-1.3,1-2.2,1.3c-0.8,0.3-1.7,0.4-2.7,0.4c-0.5,0-1-0.1-1.4-0.2c-0.4-0.1-0.8-0.2-1-0.4c-0.3-0.2-0.5-0.3-0.7-0.5
		c-0.2-0.2-0.3-0.3-0.5-0.4V61.3z M140.5,50.3c-0.4,0-0.8,0.1-1.1,0.2c-0.3,0.1-0.5,0.3-0.8,0.4c-0.1,0.1-0.2,0.2-0.2,0.3
		c-0.1,0.1-0.1,0.2-0.2,0.3V59c0.1,0.1,0.2,0.3,0.3,0.4c0.1,0.1,0.2,0.2,0.3,0.3c0.2,0.2,0.4,0.3,0.7,0.5c0.3,0.1,0.6,0.2,1,0.2
		c0.5,0,1.1-0.1,1.5-0.3c0.5-0.2,0.9-0.5,1.2-1c0.3-0.4,0.6-0.9,0.8-1.5c0.2-0.6,0.3-1.2,0.3-1.9v-1.2c0-1.4-0.3-2.5-1-3.2
		C142.6,50.7,141.7,50.3,140.5,50.3z"/>
	<path class="st0" d="M149.7,55.1c0-0.8,0.1-1.6,0.4-2.4c0.3-0.8,0.7-1.5,1.3-2.1c0.6-0.6,1.3-1.1,2.2-1.5s2-0.6,3.3-0.6
		s2.4,0.2,3.3,0.6s1.7,0.9,2.2,1.5c0.6,0.6,1,1.3,1.3,2.1c0.3,0.8,0.4,1.6,0.4,2.4c0,0.8-0.1,1.6-0.4,2.4c-0.3,0.8-0.7,1.5-1.3,2.1
		c-0.6,0.6-1.3,1.1-2.2,1.5c-0.9,0.4-2,0.6-3.3,0.6s-2.4-0.2-3.3-0.6c-0.9-0.4-1.7-0.9-2.2-1.5c-0.6-0.6-1-1.3-1.3-2.1
		C149.9,56.7,149.7,55.9,149.7,55.1z M153.8,55.1c0,0.6,0.1,1.2,0.2,1.9c0.1,0.6,0.3,1.2,0.5,1.8c0.3,0.6,0.6,1,1,1.4
		s0.9,0.5,1.4,0.5c0.5,0,1-0.2,1.4-0.5c0.4-0.4,0.7-0.8,1-1.4c0.2-0.6,0.4-1.2,0.5-1.8c0.1-0.6,0.2-1.2,0.2-1.8c0-0.7-0.1-1.4-0.2-2
		c-0.1-0.7-0.3-1.2-0.6-1.8c-0.3-0.5-0.6-0.9-1-1.3c-0.4-0.3-0.8-0.5-1.4-0.5c-0.6,0-1.1,0.2-1.5,0.5c-0.4,0.4-0.7,0.8-1,1.3
		c-0.2,0.5-0.4,1.1-0.5,1.8C153.9,53.9,153.8,54.5,153.8,55.1z"/>
	<path class="st0" d="M166,55.1c0-0.8,0.1-1.6,0.4-2.4c0.3-0.8,0.7-1.5,1.3-2.1c0.6-0.6,1.3-1.1,2.2-1.5s2-0.6,3.3-0.6
		s2.4,0.2,3.3,0.6s1.7,0.9,2.2,1.5c0.6,0.6,1,1.3,1.3,2.1c0.3,0.8,0.4,1.6,0.4,2.4c0,0.8-0.1,1.6-0.4,2.4c-0.3,0.8-0.7,1.5-1.3,2.1
		c-0.6,0.6-1.3,1.1-2.2,1.5c-0.9,0.4-2,0.6-3.3,0.6s-2.4-0.2-3.3-0.6c-0.9-0.4-1.7-0.9-2.2-1.5c-0.6-0.6-1-1.3-1.3-2.1
		C166.1,56.7,166,55.9,166,55.1z M170.1,55.1c0,0.6,0.1,1.2,0.2,1.9c0.1,0.6,0.3,1.2,0.5,1.8c0.3,0.6,0.6,1,1,1.4s0.9,0.5,1.4,0.5
		c0.5,0,1-0.2,1.4-0.5c0.4-0.4,0.7-0.8,1-1.4c0.2-0.6,0.4-1.2,0.5-1.8c0.1-0.6,0.2-1.2,0.2-1.8c0-0.7-0.1-1.4-0.2-2
		c-0.1-0.7-0.3-1.2-0.6-1.8c-0.3-0.5-0.6-0.9-1-1.3c-0.4-0.3-0.8-0.5-1.4-0.5c-0.6,0-1.1,0.2-1.5,0.5c-0.4,0.4-0.7,0.8-1,1.3
		c-0.2,0.5-0.4,1.1-0.5,1.8C170.1,53.9,170.1,54.5,170.1,55.1z"/>
	<path class="st0" d="M198.7,49.6h-3l-4.5,3.5c0.3,0.2,0.6,0.6,1.1,1c0.5,0.5,1,0.9,1.7,1.5c0.7,0.5,1.4,1,2.3,1.6
		c0.9,0.5,1.9,1,3,1.4c0.2,0.1,0.2,0.2,0.1,0.4c-0.1,0.2-0.3,0.4-0.6,0.7c-0.3,0.3-0.7,0.5-1.1,0.8c-0.4,0.3-0.8,0.5-1.2,0.8
		c-0.4,0.2-0.7,0.4-1,0.5c-0.3,0.1-0.5,0.1-0.6,0.1c-0.4-0.3-0.8-0.8-1.3-1.6c-0.4-0.7-0.9-1.5-1.3-2.4c-0.4-0.8-0.7-1.7-1-2.5
		s-0.5-1.4-0.6-1.9l-2.3,1.8v5.4h1.8v0.8h-7.7v-0.8h2V42.8l-2.7,0.4l-0.2-0.8c0.7-0.1,1.3-0.2,1.9-0.3c0.5-0.1,1-0.1,1.3-0.2
		c0.4-0.1,0.7-0.1,1-0.2c0.3,0,0.6-0.1,0.9-0.1c0.7-0.1,1.1-0.1,1.4,0c0.2,0,0.4,0.1,0.4,0.2v12.4l5.8-4.6H191v-0.8h7.8V49.6z"/>
</g>
</svg>
