<?xml version="1.0" encoding="utf-8"?>
<!-- Generator: Adobe Illustrator 25.4.1, SVG Export Plug-In . SVG Version: 6.00 Build 0)  -->
<svg version="1.1" id="图层_1" xmlns="http://www.w3.org/2000/svg" xmlns:xlink="http://www.w3.org/1999/xlink" x="0px" y="0px"
	 viewBox="0 0 200 100" style="enable-background:new 0 0 200 100;" xml:space="preserve">
<style type="text/css">
	.st0{fill:#4E8DC9;}
	.st1{fill:#DFF0FE;}
	.st2{fill:#7BAAD6;}
</style>
<g id="Book-01" transform="translate(16.000000, 13.000000)">
	<polygon id="路径" class="st0" points="-1.7,63.8 0.6,63.8 0.6,67 -1.7,67 	"/>
	<path id="路径_00000123435021957403008730000014883932951908671915_" class="st0" d="M41.7,68v-3.6c1.9,0,3.5-1.4,3.5-3.2V5.7
		c0-1.8-1.6-3.2-3.5-3.2H-2.2c-1.9,0-3.5,1.4-3.5,3.2v55.5c0,1.8,1.6,3.2,3.5,3.2V68c-4.1,0-7.4-3.1-7.4-6.9V5.7
		c0-3.8,3.3-6.9,7.4-6.9h43.9c4.1,0,7.4,3.1,7.4,6.9v55.5C49.2,64.9,45.8,68,41.7,68z"/>
	<polygon id="路径_00000160883598875652384500000005503031217558024119_" class="st1" points="9.5,7.2 8.5,72.2 53.7,71.4 
		53.7,8.5 11.9,7.6 	"/>
	<path id="形状" class="st0" d="M50.8,74.3H6.9c-4.1,0-7.4-3.1-7.4-6.9V12c0-3.8,3.3-6.9,7.4-6.9h43.9c4.1,0,7.4,3.1,7.4,6.9v55.5
		C58.2,71.2,54.9,74.3,50.8,74.3z M6.9,8.8c-1.9,0-3.5,1.4-3.5,3.2v55.5c0,1.8,1.6,3.2,3.5,3.2h43.9c1.9,0,3.5-1.4,3.5-3.2V12
		c0-1.8-1.6-3.2-3.5-3.2H6.9z"/>
	<path id="形状_00000155826369687925333510000012849650931121104571_" class="st0" d="M37.1,16.1H11.5c-1.1,0-1.9-0.8-1.9-1.8
		s0.9-1.8,1.9-1.8h25.5c1.1,0,1.9,0.8,1.9,1.8S38.1,16.1,37.1,16.1z M37.1,23H11.5c-1.1,0-1.9-0.8-1.9-1.8c0-1,0.9-1.8,1.9-1.8h25.5
		c1.1,0,1.9,0.8,1.9,1.8C39,22.1,38.1,23,37.1,23z"/>
</g>
<g>
	<path class="st2" d="M98,44.4h-2.2V62H98v0.8h-8.6V62h2.2v-8.9h-8.2V62h2.2v0.8h-8.6V62h2.2V44.4h-2.2v-0.8h8.6v0.8h-2.2v8h8.2v-8
		h-2.2v-0.8H98V44.4z"/>
	<path class="st2" d="M107.2,61.9c-0.1,0.1-0.2,0.3-0.4,0.4c-0.2,0.2-0.4,0.3-0.6,0.5s-0.5,0.3-0.9,0.4s-0.8,0.2-1.2,0.2
		c-0.8,0-1.6-0.1-2.3-0.4c-0.7-0.3-1.3-0.7-1.8-1.3c-0.5-0.6-0.9-1.3-1.2-2.2c-0.3-0.9-0.4-2-0.4-3.3c0-1.1,0.2-2.1,0.6-2.9
		s0.8-1.4,1.4-1.9c0.6-0.5,1.2-0.9,1.9-1.1s1.3-0.3,1.9-0.3c0.6,0,1.2,0.1,1.6,0.4c0.4,0.3,0.8,0.6,1.2,1c0.1-0.2,0.2-0.4,0.5-0.5
		c0.3-0.1,0.5-0.3,0.9-0.4c0.3-0.1,0.7-0.2,1-0.2c0.4-0.1,0.7-0.1,1-0.1l0,13c0,0.2-0.1,0.3-0.4,0.3s-0.6,0-1,0
		c-0.4-0.1-0.7-0.2-1-0.3c-0.3-0.1-0.5-0.3-0.5-0.6V61.9z M105,51.7c-1,0-1.8,0.4-2.4,1.1c-0.6,0.7-0.9,1.8-0.9,3.2v1.2
		c0,0.7,0.1,1.3,0.2,1.9c0.2,0.6,0.4,1.1,0.7,1.5c0.3,0.4,0.6,0.7,1,1c0.4,0.2,0.8,0.3,1.3,0.3c0.3,0,0.6-0.1,0.8-0.2
		c0.2-0.1,0.4-0.3,0.6-0.5c0.1-0.1,0.2-0.2,0.3-0.3c0.1-0.1,0.1-0.2,0.2-0.4v-7.5c0-0.1-0.1-0.2-0.2-0.3c-0.1-0.1-0.1-0.2-0.2-0.3
		c-0.2-0.1-0.4-0.3-0.6-0.4C105.6,51.7,105.3,51.7,105,51.7z"/>
	<path class="st2" d="M126.5,62.8h-6.2V62h1.4V53c0-0.5-0.2-0.9-0.5-1.2s-0.8-0.4-1.4-0.4c-0.2,0-0.5,0-0.7,0.1
		c-0.3,0.1-0.5,0.2-0.7,0.4c-0.2,0.2-0.4,0.3-0.6,0.5c-0.2,0.2-0.3,0.3-0.4,0.5V62h1.5v0.8h-6.6V62h1.7V51.2l-2.3,0.4l-0.1-0.8
		c0.6-0.1,1.1-0.2,1.6-0.3c0.4-0.1,0.8-0.1,1.1-0.2s0.6-0.1,0.8-0.2c0.2,0,0.5-0.1,0.7-0.1c0.6-0.1,0.9-0.1,1.1,0
		c0.2,0,0.3,0.1,0.4,0.2v1.2c0.5-0.4,1.1-0.8,1.9-1.1c0.8-0.3,1.5-0.4,2.3-0.4c0.6,0,1.2,0.1,1.6,0.3c0.5,0.2,0.8,0.4,1.1,0.8
		c0.3,0.3,0.5,0.7,0.7,1.1c0.1,0.4,0.2,0.9,0.2,1.4V62h1.5V62.8z"/>
	<path class="st2" d="M141,57L141,57l0,6.1c0,0.2-0.1,0.3-0.4,0.3c-0.3,0-0.6,0-1,0c-0.4-0.1-0.7-0.2-1-0.3
		c-0.3-0.1-0.5-0.3-0.5-0.6v-0.8c-0.1,0.1-0.2,0.3-0.4,0.4c-0.2,0.2-0.4,0.3-0.6,0.5c-0.2,0.2-0.5,0.3-0.9,0.4s-0.8,0.2-1.2,0.2
		c-0.8,0-1.6-0.1-2.3-0.4c-0.7-0.3-1.3-0.7-1.8-1.3c-0.5-0.6-0.9-1.3-1.2-2.2c-0.3-0.9-0.4-2-0.4-3.3c0-1.1,0.2-2.1,0.6-2.9
		c0.4-0.8,0.8-1.4,1.4-1.9c0.6-0.5,1.2-0.9,1.9-1.1s1.3-0.3,1.9-0.3c0.6,0,1.2,0.1,1.6,0.4c0.4,0.3,0.8,0.6,1.2,1v-8.1
		c0.2-0.3,0.4-0.4,0.6-0.5c0.2,0,0.5,0,0.8,0.1c0.3,0.1,0.6,0.3,0.9,0.5c0.3,0.2,0.7,0.4,1,0.6V57z M135.7,51.7
		c-1,0-1.8,0.4-2.4,1.1c-0.6,0.7-0.9,1.8-0.9,3.2v1.2c0,0.7,0.1,1.3,0.2,1.9c0.2,0.6,0.4,1.1,0.7,1.5c0.3,0.4,0.6,0.7,1,1
		c0.4,0.2,0.8,0.3,1.3,0.3c0.3,0,0.6-0.1,0.8-0.2c0.2-0.1,0.4-0.3,0.6-0.5c0.1-0.1,0.2-0.2,0.3-0.3c0.1-0.1,0.1-0.2,0.2-0.4v-7.5
		c0-0.1-0.1-0.2-0.2-0.3c-0.1-0.1-0.1-0.2-0.2-0.3c-0.2-0.1-0.4-0.3-0.6-0.4C136.4,51.7,136.1,51.7,135.7,51.7z"/>
	<path class="st2" d="M147.4,62.6c0,0.2-0.2,0.4-0.5,0.6s-0.7,0.3-1,0.3c-0.4,0.1-0.7,0.1-1,0s-0.4-0.2-0.4-0.3l0-6.1V44.2l-2.3,0.4
		l-0.1-0.8c0.6-0.1,1.1-0.2,1.6-0.3c0.4-0.1,0.8-0.1,1.1-0.2c0.3-0.1,0.6-0.1,0.8-0.2c0.2,0,0.5-0.1,0.7-0.1c0.6-0.1,0.9-0.1,1.1,0
		c0.2,0,0.3,0.1,0.4,0.2v8.1c0.4-0.4,0.8-0.7,1.2-1c0.4-0.3,1-0.4,1.6-0.4c0.6,0,1.3,0.1,1.9,0.3c0.7,0.2,1.3,0.6,1.9,1.1
		c0.6,0.5,1,1.1,1.4,1.9c0.4,0.8,0.6,1.7,0.6,2.9c0,1.3-0.1,2.4-0.4,3.3c-0.3,0.9-0.7,1.6-1.2,2.2c-0.5,0.6-1.1,1-1.8,1.3
		c-0.7,0.3-1.5,0.4-2.3,0.4c-0.5,0-0.9-0.1-1.2-0.2c-0.3-0.1-0.6-0.2-0.9-0.4c-0.2-0.2-0.4-0.3-0.6-0.5c-0.2-0.2-0.3-0.3-0.4-0.4
		V62.6z M149.6,51.7c-0.4,0-0.7,0.1-0.9,0.2c-0.2,0.1-0.5,0.3-0.6,0.4c-0.1,0.1-0.1,0.2-0.2,0.3c-0.1,0.1-0.1,0.2-0.2,0.3v7.5
		c0.1,0.1,0.1,0.3,0.2,0.4c0.1,0.1,0.2,0.2,0.3,0.3c0.2,0.2,0.4,0.3,0.6,0.5c0.2,0.1,0.5,0.2,0.8,0.2c0.5,0,0.9-0.1,1.3-0.3
		c0.4-0.2,0.7-0.5,1-1c0.3-0.4,0.5-0.9,0.7-1.5c0.2-0.6,0.2-1.2,0.2-1.9v-1.2c0-1.4-0.3-2.5-0.9-3.2C151.4,52,150.6,51.7,149.6,51.7
		z"/>
	<path class="st2" d="M157.4,56.5c0-0.8,0.1-1.6,0.3-2.4c0.2-0.8,0.6-1.5,1.1-2.1s1.1-1.1,1.9-1.5c0.8-0.4,1.7-0.6,2.8-0.6
		s2,0.2,2.8,0.6c0.8,0.4,1.4,0.9,1.9,1.5s0.8,1.3,1.1,2.1c0.2,0.8,0.3,1.6,0.3,2.4s-0.1,1.6-0.3,2.4c-0.2,0.8-0.6,1.5-1.1,2.1
		s-1.1,1.1-1.9,1.5s-1.7,0.6-2.8,0.6s-2-0.2-2.8-0.6c-0.8-0.4-1.4-0.9-1.9-1.5c-0.5-0.6-0.8-1.3-1.1-2.1
		C157.6,58.1,157.4,57.3,157.4,56.5z M160.9,56.5c0,0.6,0,1.2,0.1,1.9c0.1,0.6,0.2,1.2,0.5,1.8s0.5,1,0.8,1.4
		c0.3,0.4,0.7,0.5,1.2,0.5c0.5,0,0.9-0.2,1.2-0.5s0.6-0.8,0.8-1.4c0.2-0.6,0.4-1.2,0.4-1.8c0.1-0.6,0.1-1.2,0.1-1.8
		c0-0.7-0.1-1.4-0.2-2c-0.1-0.7-0.3-1.2-0.5-1.8c-0.2-0.5-0.5-0.9-0.8-1.3c-0.3-0.3-0.7-0.5-1.2-0.5c-0.5,0-0.9,0.2-1.3,0.5
		s-0.6,0.8-0.8,1.3s-0.3,1.1-0.4,1.8S160.9,55.9,160.9,56.5z"/>
	<path class="st2" d="M171.2,56.5c0-0.8,0.1-1.6,0.3-2.4c0.2-0.8,0.6-1.5,1.1-2.1s1.1-1.1,1.9-1.5c0.8-0.4,1.7-0.6,2.8-0.6
		s2,0.2,2.8,0.6c0.8,0.4,1.4,0.9,1.9,1.5s0.8,1.3,1.1,2.1c0.2,0.8,0.3,1.6,0.3,2.4s-0.1,1.6-0.3,2.4c-0.2,0.8-0.6,1.5-1.1,2.1
		s-1.1,1.1-1.9,1.5s-1.7,0.6-2.8,0.6s-2-0.2-2.8-0.6c-0.8-0.4-1.4-0.9-1.9-1.5c-0.5-0.6-0.8-1.3-1.1-2.1
		C171.3,58.1,171.2,57.3,171.2,56.5z M174.7,56.5c0,0.6,0,1.2,0.1,1.9c0.1,0.6,0.2,1.2,0.5,1.8s0.5,1,0.8,1.4
		c0.3,0.4,0.7,0.5,1.2,0.5c0.5,0,0.9-0.2,1.2-0.5s0.6-0.8,0.8-1.4c0.2-0.6,0.4-1.2,0.4-1.8c0.1-0.6,0.1-1.2,0.1-1.8
		c0-0.7-0.1-1.4-0.2-2c-0.1-0.7-0.3-1.2-0.5-1.8c-0.2-0.5-0.5-0.9-0.8-1.3c-0.3-0.3-0.7-0.5-1.2-0.5c-0.5,0-0.9,0.2-1.3,0.5
		s-0.6,0.8-0.8,1.3s-0.3,1.1-0.4,1.8S174.7,55.9,174.7,56.5z"/>
	<path class="st2" d="M199,50.9h-2.6l-3.8,3.5c0.2,0.2,0.5,0.6,0.9,1c0.4,0.5,0.9,0.9,1.4,1.5c0.6,0.5,1.2,1,2,1.6
		c0.7,0.5,1.6,1,2.6,1.4c0.2,0.1,0.2,0.2,0.1,0.4c-0.1,0.2-0.3,0.4-0.5,0.7s-0.6,0.5-0.9,0.8s-0.7,0.5-1,0.8s-0.6,0.4-0.9,0.5
		c-0.3,0.1-0.4,0.1-0.5,0.1c-0.3-0.3-0.7-0.8-1.1-1.6c-0.4-0.7-0.7-1.5-1.1-2.4c-0.3-0.8-0.6-1.7-0.9-2.5c-0.3-0.8-0.4-1.5-0.5-1.9
		l-1.9,1.8V62h1.5v0.8h-6.6V62h1.7V44.1l-2.3,0.4l-0.1-0.8c0.6-0.1,1.1-0.2,1.6-0.3s0.8-0.1,1.1-0.2c0.3-0.1,0.6-0.1,0.8-0.2
		c0.2,0,0.5-0.1,0.7-0.1c0.6-0.1,0.9-0.1,1.1,0c0.2,0,0.3,0.1,0.4,0.2v12.4l4.9-4.6h-2.8v-0.8h6.6V50.9z"/>
</g>
</svg>
