<?xml version="1.0" encoding="UTF-8"?>
<svg width="200px" height="100px" viewBox="0 0 200 100" version="1.1" xmlns="http://www.w3.org/2000/svg" xmlns:xlink="http://www.w3.org/1999/xlink">
    <title>画板</title>
    <g id="画板" stroke="none" stroke-width="1" fill="none" fill-rule="evenodd">
        <g id="Book-01" transform="translate(16.000000, 13.000000)" fill-rule="nonzero">
            <polygon id="路径" fill="#4E8DC9" points="7 62 9 62 9 65 7 65"></polygon>
            <path d="M45.4323144,66 L45.4323144,62.5221973 C47.1266376,62.5221973 48.5065502,61.1484653 48.5065502,59.461731 L48.5065502,6.538269 C48.5065502,4.85153471 47.1266376,3.47780266 45.4323144,3.47780266 L6.56768559,3.47780266 C4.87336245,3.47780266 3.49344978,4.85153471 3.49344978,6.538269 L3.49344978,59.461731 C3.49344978,61.1484653 4.87336245,62.5221973 6.56768559,62.5221973 L6.56768559,66 C2.94323144,66 0,63.0699513 0,59.461731 L0,6.538269 C0,2.93004874 2.94323144,0 6.56768559,0 L45.4323144,0 C49.0567686,0 52,2.93004874 52,6.538269 L52,59.461731 C52,63.0699513 49.0567686,66 45.4323144,66 Z" id="路径" fill="#4E8DC9"></path>
            <polygon id="路径" fill="#DFF0FE" points="16.885831 8 16 70 56 69.2413793 56 9.21551724 19.0015051 8.32758621"></polygon>
            <path d="M53.4323144,72 L14.5676856,72 C10.9432314,72 8,69.0703372 8,65.4625922 L8,12.5374078 C8,8.9296628 10.9432314,6 14.5676856,6 L53.4323144,6 C57.0567686,6 60,8.9296628 60,12.5374078 L60,65.4538988 C60,69.0616438 57.0567686,72 53.4323144,72 Z M14.5676856,9.47734457 C12.8733624,9.47734457 11.4934498,10.8508957 11.4934498,12.5374078 L11.4934498,65.4538988 C11.4934498,67.140411 12.8733624,68.5139621 14.5676856,68.5139621 L53.4323144,68.5139621 C55.1266376,68.5139621 56.5065502,67.140411 56.5065502,65.4538988 L56.5065502,12.5374078 C56.5065502,10.8508957 55.1266376,9.47734457 53.4323144,9.47734457 L14.5676856,9.47734457 Z" id="形状" fill="#4E8DC9"></path>
            <path d="M41.297315,16.4752389 L18.702685,16.4752389 C17.7662083,16.4752389 17,15.6933102 17,14.7376195 C17,13.7819288 17.7662083,13 18.702685,13 L41.297315,13 C42.2337917,13 43,13.7819288 43,14.7376195 C43,15.6933102 42.2337917,16.4752389 41.297315,16.4752389 Z M41.297315,23 L18.702685,23 C17.7662083,23 17,22.2180712 17,21.2623805 C17,20.3066898 17.7662083,19.5247611 18.702685,19.5247611 L41.297315,19.5247611 C42.2337917,19.5247611 43,20.3066898 43,21.2623805 C43,22.2180712 42.2337917,23 41.297315,23 Z" id="形状" fill="#4E8DC9"></path>
        </g>
        <g id="手册" transform="translate(92.496000, 29.216000)" fill="#4E8DC9" fill-rule="nonzero">
            <path d="M37.632,0 C28.464,2.208 16.944,3.36 3.024,3.36 L4.08,6.48 C10.032,6.48 15.552,6.24 20.64,5.856 L20.64,13.68 L3.984,13.68 L3.984,17.04 L20.64,17.04 L20.64,24.912 L-1.42108547e-14,24.912 L-1.42108547e-14,28.224 L20.64,28.224 L20.64,37.968 C20.64,39.312 19.872,40.032 18.432,40.032 C16.224,40.032 13.872,39.936 11.424,39.84 L12.192,43.2 L19.632,43.2 C22.608,43.2 24.144,41.712 24.144,38.832 L24.144,28.224 L43.056,28.224 L43.056,24.912 L24.144,24.912 L24.144,17.04 L39.456,17.04 L39.456,13.68 L24.144,13.68 L24.144,5.568 C29.904,4.992 34.944,4.08 39.312,2.928 L37.632,0 Z" id="路径"></path>
            <path d="M47.712,18.72 L47.712,22.032 L53.376,22.032 L53.376,24.672 C53.28,31.392 51.936,36.912 49.296,41.232 L51.84,43.584 C55.008,38.688 56.64,32.304 56.736,24.384 L56.736,22.032 L63.696,22.032 L63.696,37.92 C63.696,39.264 63.168,39.936 62.208,39.936 C60.864,39.936 59.424,39.888 57.888,39.792 L58.752,43.056 L63.264,43.056 C65.76,43.056 67.008,41.712 67.008,39.072 L67.008,22.032 L72.384,22.032 L72.384,24.72 C72.288,31.44 71.088,36.96 68.784,41.28 L71.328,43.536 C74.16,38.688 75.6,32.352 75.696,24.48 L75.696,22.032 L82.704,22.032 L82.704,37.92 C82.704,39.264 82.08,39.936 80.832,39.936 C79.488,39.936 78.048,39.888 76.512,39.792 L77.424,43.056 L81.888,43.056 C84.672,43.056 86.112,41.76 86.112,39.168 L86.112,22.032 L91.296,22.032 L91.296,18.72 L86.112,18.72 L86.112,1.44 L72.384,1.44 L72.384,18.72 L67.008,18.72 L67.008,1.44 L53.376,1.44 L53.376,18.72 L47.712,18.72 Z M82.704,18.72 L75.696,18.72 L75.696,4.608 L82.704,4.608 L82.704,18.72 Z M63.696,18.72 L56.736,18.72 L56.736,4.608 L63.696,4.608 L63.696,18.72 Z" id="形状"></path>
        </g>
    </g>
</svg>