<?xml version="1.0" encoding="UTF-8"?>
<svg width="200px" height="200px" viewBox="0 0 200 200" version="1.1" xmlns="http://www.w3.org/2000/svg" xmlns:xlink="http://www.w3.org/1999/xlink">
    <title>改色</title>
    <defs>
        <linearGradient x1="50%" y1="100%" x2="50%" y2="0%" id="linearGradient-1">
            <stop stop-color="#FFFFFF" offset="0%"></stop>
            <stop stop-color="#FFFCCF" offset="100%"></stop>
        </linearGradient>
        <path d="M67.9999987,0 C45.8333333,0 38.75,-1.55609333e-08 28.75,3.33333333 C16.9666672,7.5 7.5,16.9666672 3.33333333,28.75 C0,38.75 0,45.8333333 0,67.9999987 C0,67.9999987 1.23798867e-07,131.999995 0,131.999995 C1.23798867e-07,154.166667 9.93327257e-08,161.25 3.33333333,171.25 C7.50773112,183.033333 16.9666672,192.5 28.75,196.666667 C38.75,200 45.8333333,200 67.9999987,200 L131.999995,200 C154.166667,200 161.25,200 171.25,196.666667 C183.033333,192.5 192.5,183.033333 196.666667,171.25 C200,161.25 200,154.166667 200,131.999995 L200,67.9999987 C200,45.8333333 200,38.75 196.666667,28.75 C192.5,17.0833333 182.899996,7.5 171.23333,3.33333333 C161.23333,9.33818948e-09 154.166667,3.51775024e-08 131.999995,0 C143.666662,3.51775024e-08 67.9999987,0 67.9999987,0 Z" id="path-2"></path>
    </defs>
    <g id="主页面" stroke="none" stroke-width="1" fill="none" fill-rule="evenodd">
        <g id="方形图标" transform="translate(-350.000000, -200.000000)">
            <g id="改色" transform="translate(350.000000, 200.000000)">
                <mask id="mask-3" fill="white">
                    <use xlink:href="#path-2" transform="translate(100.000000, 100.000000) scale(-1, -1) translate(-100.000000, -100.000000) "></use>
                </mask>
                <use id="iconbase" fill="url(#linearGradient-1)" transform="translate(100.000000, 100.000000) scale(-1, -1) translate(-100.000000, -100.000000) " xlink:href="#path-2"></use>
                <g id="Logo" mask="url(#mask-3)">
                    <g transform="translate(27.000000, 14.000000)">
                        <path d="M73,0 L146,52.9244913 L146,142.255639 L79.4888889,142.255639 L73,137.729323 L66.5111111,142.255639 L0,142.255639 L0,52.9244913 L73,0 Z" id="Bootom" fill="#FFFFFF"></path>
                        <g id="Logo" stroke-width="1" fill="none" transform="translate(72.989808, 72.744361) scale(-1, 1) rotate(-180.000000) translate(-72.989808, -72.744361) translate(8.111111, 9.375940)">
                            <path d="M0,79.5338346 L0,0 L56.9464889,0 C53.6516496,4.39401962 50.7580405,8.48440353 48.2656618,12.2711517 C41.0372457,22.9481035 38.129008,33.0895918 38.2918636,43.0414946 C38.4038626,49.885611 40.1016625,56.6641741 43.4691967,63.3684211 C45.8773376,68.1626623 49.5975531,72.2855144 53.4157028,76.1096973 C58.0209355,80.7222068 61.8336324,82.3199347 64.8457698,82.3199347 C67.5610392,82.3199347 72.5379492,79.800858 77.1664661,75.3884289 C81.5941157,71.1674894 85.5961501,64.7787352 87.7125767,60.3737306 C89.8404005,55.9658211 91.234348,51.1771115 91.5112725,46.1390186 C91.746181,41.8653234 91.4676001,39.7355733 90.9256406,35.439401 C90.7605881,34.1310119 89.7319366,29.8655251 89.0540337,27.5270634 C88.5166649,25.6733818 87.4022341,22.2158647 85.7107413,17.1545119 L79.5588644,18.9389523 C80.1747838,21.242565 81.1561873,24.3580881 82.5030747,28.2855216 C82.6235229,28.6367406 83.0257135,30.08111 83.1034583,30.3909601 C83.6021324,32.3784145 84.1294976,34.5105988 84.4149999,36.601113 C84.8475484,39.7683332 84.7967905,42.7778289 84.7967905,44.5284975 C84.7195941,47.679069 84.027933,51.898891 82.5030747,55.7620735 C80.1412091,61.7457889 76.3925066,67.207724 72.4466879,70.7784164 C69.6818063,73.2804426 67.0673231,74.1814876 64.8457698,74.0028511 C63.5891231,73.9018033 62.7707569,73.462086 61.3489509,72.7544363 C58.1466538,71.3598427 53.7196114,66.6993099 50.6742221,60.3737306 C47.7315965,54.2616018 46.510882,46.7886144 46.510882,41.6872341 C46.510882,36.8762045 47.5647116,31.1941361 49.7069573,25.8226779 C52.9720384,17.6358264 58.8956793,10.716042 66.0244444,5.86701159 C68.4149282,4.14117242 70.1993726,2.96799869 71.3777778,2.3474904 C72.6753774,1.66421833 74.6049402,0.881721534 77.1664661,0 L129.69154,0 L129.530326,40.8676295 C129.617263,49.3917692 129.681293,56.5065262 129.722414,62.2119004 C129.77773,69.886602 129.767439,75.66058 129.69154,79.5338346 L64.8457698,126.736842 L0,79.5338346 Z" id="路径" fill="#9CCC64" fill-rule="nonzero"></path>
                        </g>
                        <path d="M106.417778,172 L106.417778,168.120301 L115.826444,168.120203 L115.826444,165.533203 L106.417778,165.533835 L106.417778,162.300752 L115.826444,162.300203 L115.826444,160.037203 L106.417778,160.037594 L106.417778,156.481203 L117.773333,156.481203 L117.773333,172 L106.417778,172 Z M102.524444,156.481203 L106.417778,156.481203 L106.417778,172 L102.524444,172 L102.524444,156.481203 Z" id="B" fill="#689F38"></path>
                        <path d="M82.0844444,156.481203 L82.0844444,160.037594 L70.0795556,160.037203 L70.0795556,162.300203 L76.5688889,162.300752 L76.5688889,165.533835 L70.0795556,165.533203 L70.0795556,168.120203 L82.0844444,168.120301 L82.0844444,172 L66.8355556,172 L66.8355556,156.481203 L82.0844444,156.481203 Z" id="E" fill="#689F38"></path>
                        <path d="M34.0666667,156.481203 L37.6355556,156.481203 L37.6355556,172 L34.0666667,172 L34.0666667,156.481203 Z M37.6355556,168.120301 L49.64,168.120301 L49.64,172 L37.6355556,172 L37.6355556,168.120301 Z" id="L" fill="#689F38"></path>
                    </g>
                </g>
            </g>
        </g>
    </g>
</svg>